<svg width="25" height="22" viewBox="0 0 25 22" fill="none" xmlns="http://www.w3.org/2000/svg">
<path id="Vector" d="M16.9967 3.50827L20.8047 7.31628C20.9652 7.47671 20.9652 7.73845 20.8047 7.89888L11.5845 17.1192L7.66668 17.554C7.14319 17.6131 6.69991 17.1698 6.75901 16.6463L7.19385 12.7286L16.4141 3.50827C16.5746 3.34784 16.8363 3.34784 16.9967 3.50827ZM23.836 2.54149L21.7757 0.481279C21.134 -0.160426 20.0913 -0.160426 19.4453 0.481279L17.9508 1.97578C17.7904 2.1362 17.7904 2.39795 17.9508 2.55838L21.7589 6.36639C21.9193 6.52681 22.181 6.52681 22.3415 6.36639L23.836 4.87189C24.4777 4.22596 24.4777 3.18319 23.836 2.54149ZM16.2115 14.6115V18.9092H2.70192V5.39961H12.4035C12.5386 5.39961 12.6652 5.34473 12.7623 5.25185L14.451 3.56315C14.7719 3.2423 14.5439 2.69769 14.0922 2.69769H2.02644C0.907675 2.69769 0 3.60537 0 4.72413V19.5847C0 20.7034 0.907675 21.6111 2.02644 21.6111H16.887C18.0057 21.6111 18.9134 20.7034 18.9134 19.5847V12.9228C18.9134 12.471 18.3688 12.2473 18.0479 12.5639L16.3593 14.2526C16.2664 14.3497 16.2115 14.4764 16.2115 14.6115Z" fill="#273864" fill-opacity="0.68"/>
</svg>
