<svg width="21" height="17" viewBox="0 0 21 17" fill="none" xmlns="http://www.w3.org/2000/svg">
<path d="M19.1914 6.48944L18.6996 5.26006L17.8277 3.08C17.0791 1.20881 15.2937 0 13.2781 0H7.72187C5.70675 0 3.92088 1.20881 3.17231 3.08L2.30037 5.26006L1.80862 6.48944C0.753375 6.89062 0 7.90387 0 9.1V11.2C0 11.9052 0.2695 12.5418 0.7 13.0344V15.4C0.7 16.1731 1.32694 16.8 2.1 16.8H3.5C4.27306 16.8 4.9 16.1731 4.9 15.4V14H16.1V15.4C16.1 16.1731 16.7269 16.8 17.5 16.8H18.9C19.6731 16.8 20.3 16.1731 20.3 15.4V13.0344C20.7305 12.5422 21 11.9057 21 11.2V9.1C21 7.90387 20.2466 6.89062 19.1914 6.48944ZM5.77194 4.11994C6.09087 3.32281 6.86306 2.8 7.72187 2.8H13.2781C14.1369 2.8 14.9091 3.32281 15.2281 4.11994L16.1 6.3H4.9L5.77194 4.11994ZM3.5 11.1912C2.66 11.1912 2.1 10.633 2.1 9.79562C2.1 8.95825 2.66 8.4 3.5 8.4C4.34 8.4 5.6 9.65606 5.6 10.4934C5.6 11.3308 4.34 11.1912 3.5 11.1912ZM17.5 11.1912C16.66 11.1912 15.4 11.3308 15.4 10.4934C15.4 9.65606 16.66 8.4 17.5 8.4C18.34 8.4 18.9 8.95825 18.9 9.79562C18.9 10.633 18.34 11.1912 17.5 11.1912Z" fill="#273864" fill-opacity="0.68"/>
</svg>
