<svg width="179" height="23" viewBox="0 0 179 23" fill="none" xmlns="http://www.w3.org/2000/svg">
<path d="M13.6584 22L9.6624 16.228H9.4256H5.252V22H0.4568V1.28H9.4256C11.2608 1.28 12.8493 1.58587 14.1912 2.1976C15.5528 2.80933 16.5987 3.6776 17.3288 4.8024C18.0589 5.9272 18.424 7.2592 18.424 8.7984C18.424 10.3376 18.0491 11.6696 17.2992 12.7944C16.5691 13.8995 15.5232 14.748 14.1616 15.34L18.8088 22H13.6584ZM13.5696 8.7984C13.5696 7.63413 13.1947 6.74613 12.4448 6.1344C11.6949 5.50293 10.5997 5.1872 9.1592 5.1872H5.252V12.4096H9.1592C10.5997 12.4096 11.6949 12.0939 12.4448 11.4624C13.1947 10.8309 13.5696 9.94293 13.5696 8.7984ZM22.2232 1.28H27.0184V22H22.2232V1.28ZM31.9357 1.28H41.3485C43.5981 1.28 45.5813 1.71413 47.2981 2.5824C49.0346 3.43093 50.3765 4.63467 51.3237 6.1936C52.2906 7.75253 52.7741 9.568 52.7741 11.64C52.7741 13.712 52.2906 15.5275 51.3237 17.0864C50.3765 18.6453 49.0346 19.8589 47.2981 20.7272C45.5813 21.5757 43.5981 22 41.3485 22H31.9357V1.28ZM41.1117 18.0632C43.1837 18.0632 44.8314 17.4909 46.0549 16.3464C47.2981 15.1821 47.9197 13.6133 47.9197 11.64C47.9197 9.66667 47.2981 8.10773 46.0549 6.9632C44.8314 5.79893 43.1837 5.2168 41.1117 5.2168H36.7309V18.0632H41.1117ZM72.4336 18.152V22H56.3904V1.28H72.0488V5.128H61.156V9.6272H70.776V13.3568H61.156V18.152H72.4336ZM89.4506 22L85.4546 16.228H85.2178H81.0442V22H76.249V1.28H85.2178C87.053 1.28 88.6415 1.58587 89.9834 2.1976C91.345 2.80933 92.3909 3.6776 93.121 4.8024C93.8511 5.9272 94.2162 7.2592 94.2162 8.7984C94.2162 10.3376 93.8413 11.6696 93.0914 12.7944C92.3613 13.8995 91.3154 14.748 89.9538 15.34L94.601 22H89.4506ZM89.3618 8.7984C89.3618 7.63413 88.9869 6.74613 88.237 6.1344C87.4871 5.50293 86.3919 5.1872 84.9514 5.1872H81.0442V12.4096H84.9514C86.3919 12.4096 87.4871 12.0939 88.237 11.4624C88.9869 10.8309 89.3618 9.94293 89.3618 8.7984ZM113.23 11.2256C114.414 11.6005 115.341 12.232 116.012 13.12C116.683 13.9883 117.019 15.0637 117.019 16.3464C117.019 18.1619 116.308 19.5629 114.887 20.5496C113.486 21.5165 111.434 22 108.731 22H98.0154V1.28H108.139C110.664 1.28 112.598 1.76347 113.94 2.7304C115.302 3.69733 115.983 5.0096 115.983 6.6672C115.983 7.6736 115.736 8.57147 115.243 9.3608C114.769 10.1501 114.098 10.7717 113.23 11.2256ZM102.781 4.8912V9.7752H107.547C108.731 9.7752 109.628 9.568 110.24 9.1536C110.852 8.7392 111.158 8.12747 111.158 7.3184C111.158 6.50933 110.852 5.90747 110.24 5.5128C109.628 5.0984 108.731 4.8912 107.547 4.8912H102.781ZM108.375 18.3888C109.638 18.3888 110.586 18.1816 111.217 17.7672C111.868 17.3528 112.194 16.7115 112.194 15.8432C112.194 14.1264 110.921 13.268 108.375 13.268H102.781V18.3888H108.375ZM134.295 17.56H124.675L122.839 22H117.926L127.161 1.28H131.897L141.162 22H136.13L134.295 17.56ZM132.785 13.9192L129.499 5.9864L126.214 13.9192H132.785ZM150.119 22.3552C148.482 22.3552 146.893 22.1381 145.354 21.704C143.834 21.2501 142.611 20.668 141.683 19.9576L143.311 16.3464C144.199 16.9976 145.255 17.5205 146.479 17.9152C147.702 18.3099 148.926 18.5072 150.149 18.5072C151.511 18.5072 152.517 18.3099 153.168 17.9152C153.819 17.5008 154.145 16.9581 154.145 16.2872C154.145 15.7939 153.948 15.3893 153.553 15.0736C153.178 14.7381 152.685 14.4717 152.073 14.2744C151.481 14.0771 150.672 13.86 149.646 13.6232C148.067 13.2483 146.775 12.8733 145.768 12.4984C144.762 12.1235 143.894 11.5216 143.163 10.6928C142.453 9.864 142.098 8.75893 142.098 7.3776C142.098 6.17387 142.423 5.08853 143.075 4.1216C143.726 3.13493 144.703 2.35547 146.005 1.7832C147.327 1.21093 148.935 0.924799 150.83 0.924799C152.152 0.924799 153.445 1.08267 154.707 1.3984C155.97 1.71413 157.075 2.168 158.023 2.76L156.543 6.4008C154.629 5.31547 152.714 4.7728 150.8 4.7728C149.458 4.7728 148.462 4.98987 147.811 5.424C147.179 5.85813 146.863 6.4304 146.863 7.1408C146.863 7.8512 147.229 8.384 147.959 8.7392C148.709 9.07467 149.843 9.41013 151.363 9.7456C152.941 10.1205 154.234 10.4955 155.24 10.8704C156.247 11.2453 157.105 11.8373 157.815 12.6464C158.546 13.4555 158.911 14.5507 158.911 15.932C158.911 17.116 158.575 18.2013 157.904 19.188C157.253 20.1549 156.266 20.9245 154.944 21.4968C153.622 22.0691 152.014 22.3552 150.119 22.3552ZM178.23 18.152V22H162.187V1.28H177.846V5.128H166.953V9.6272H176.573V13.3568H166.953V18.152H178.23Z" fill="#2B468B"/>
</svg>
