<svg width="14" height="11" viewBox="0 0 14 11" fill="none" xmlns="http://www.w3.org/2000/svg">
<path d="M0 9.72222C0 10.3663 0.522569 10.8889 1.16667 10.8889H12.8333C13.4774 10.8889 14 10.3663 14 9.72222V5.44444H0V9.72222ZM4.66667 8.06944C4.66667 7.90903 4.79792 7.77778 4.95833 7.77778H8.26389C8.42431 7.77778 8.55556 7.90903 8.55556 8.06944V9.04167C8.55556 9.20208 8.42431 9.33333 8.26389 9.33333H4.95833C4.79792 9.33333 4.66667 9.20208 4.66667 9.04167V8.06944ZM1.55556 8.06944C1.55556 7.90903 1.68681 7.77778 1.84722 7.77778H3.59722C3.75764 7.77778 3.88889 7.90903 3.88889 8.06944V9.04167C3.88889 9.20208 3.75764 9.33333 3.59722 9.33333H1.84722C1.68681 9.33333 1.55556 9.20208 1.55556 9.04167V8.06944ZM14 1.16667V2.33333H0V1.16667C0 0.522569 0.522569 0 1.16667 0H12.8333C13.4774 0 14 0.522569 14 1.16667Z" fill="white"/>
</svg>
